Coordinates
version=1
nRows=23
nColumns=23
inDegrees=yes

Units are S.I. units (second, meters, Newtons, ...)
If the header above contains a line with 'inDegrees', this indicates whether rotational values are in degrees (yes) or radians (no).

endheader
time	pelvis_tilt	pelvis_list	pelvis_rotation	pelvis_tx	pelvis_ty	pelvis_tz	hip_flexion_r	hip_adduction_r	hip_rotation_r	knee_angle_r	knee_angle_r_beta	ankle_angle_r	subtalar_angle_r	mtp_angle_r	hip_flexion_l	hip_adduction_l	hip_rotation_l	knee_angle_l	knee_angle_l_beta	ankle_angle_l	subtalar_angle_l	mtp_angle_l
     22.50000000	     -6.06401483	     -2.11943949	     -3.08641949	      2.34089085	      0.96525169	      1.03589797	     48.23802608	      5.52466228	     -0.29606263	     86.03974945	      1.50167692	      5.72181057	    -15.83194021	      0.00000000	    -15.05159816	      0.05467252	     -8.25008406	     17.11810421	      0.29876728	     -6.93381533	      3.44210463	      0.00000000
     22.50666667	     -6.33190499	     -2.68733443	     -3.51386575	      2.34297576	      0.96904640	      1.03712296	     48.25621430	      6.44478536	     -0.42948691	     81.87847599	      1.42904899	      5.66427730	    -16.26659026	      0.00000000	    -16.14908988	     -0.48564585	     -9.68550400	     16.84729153	      0.29404071	    -10.05131085	      2.79781940	      0.00000000
     22.51333333	     -7.03190103	     -2.94000472	     -3.78245896	      2.34478436	      0.97178335	      1.03814291	     48.68651004	      6.87829155	     -0.59967139	     77.73077837	      1.35665801	      5.98717708	    -15.82597158	      0.00000000	    -16.32613056	     -0.87981476	    -11.23279303	     17.53945429	      0.30612123	    -12.56747885	      2.43140455	      0.00000000
     22.52000000	     -7.64109955	     -3.14355846	     -4.02060086	      2.34649470	      0.97421940	      1.03922300	     48.88072549	      7.25989954	     -0.74633279	     73.47325579	      1.28235023	      6.40181012	    -15.10103245	      0.00000000	    -16.34886563	     -1.31901616	    -12.93181293	     18.84868659	      0.32897164	    -14.67157940	      2.11054381	      0.00000000
     22.52666667	     -8.30256840	     -3.16379828	     -4.27733680	      2.34793496	      0.97605124	      1.04046838	     49.04432668	      7.53885110	     -0.74121404	     69.17516228	      1.20733434	      6.91394884	    -14.05827078	      0.00000000	    -16.09899218	     -1.63060382	    -14.52794382	     20.66909659	      0.36074379	    -16.47103887	      1.39037542	      0.00000000
     22.53333333	     -8.67475970	     -3.39388559	     -4.41112694	      2.34942748	      0.97790154	      1.04167251	     48.69985264	      7.89944338	     -0.93765927	     64.69040548	      1.12906057	      7.51017460	    -12.70632855	      0.00000000	    -16.01618084	     -2.27702020	    -16.17538772	     22.95344815	      0.40061324	    -17.75125662	      0.86697357	      0.00000000
     22.54000000	     -8.62611741	     -3.70875093	     -4.49196760	      2.35084586	      0.97986117	      1.04287041	     47.73513419	      8.30261673	     -1.16853551	     60.07731207	      1.04854690	      8.13540452	    -11.09363223	      0.00000000	    -16.29566967	     -3.04452860	    -17.74262961	     25.52428581	      0.44548283	    -18.62164957	      0.73575941	      0.00000000
     22.54666667	     -8.68228879	     -3.86652866	     -4.62569825	      2.35204393	      0.98113161	      1.04428994	     46.81576865	      8.68155792	     -1.19727301	     55.50025953	      0.96866226	      8.80686282	     -9.30710247	      0.00000000	    -16.37984545	     -3.62395596	    -18.89241890	     28.27696427	      0.49352613	    -19.19571012	      0.07773552	      0.00000000
     22.55333333	     -8.92768518	     -3.82268510	     -4.87651015	      2.35290694	      0.98162321	      1.04599254	     46.03980752	      9.05692199	     -0.90762111	     50.97776650	      0.88972987	      9.49927801	     -7.51170034	      0.00000000	    -16.15083037	     -3.96778065	    -19.73848686	     31.22398779	      0.54496139	    -19.51886047	     -1.10079257	      0.00000000
     22.56000000	     -8.48219063	     -4.03202672	     -4.96508331	      2.35394148	      0.98277857	      1.04743014	     44.31950401	      9.47141007	     -0.87631746	     46.35096236	      0.80897690	     10.22346651	     -5.37864183	      0.00000000	    -16.64427637	     -4.48048661	    -20.24754895	     34.17311902	      0.59643344	    -19.49337810	     -1.59942985	      0.00000000
     22.56666667	     -8.26639116	     -4.01514480	     -5.19635888	      2.35461509	      0.98306750	      1.04911672	     42.82572917	      9.87262583	     -0.43803490	     41.89646400	      0.73123124	     10.92946425	     -3.44117945	      0.00000000	    -16.76033954	     -4.72660410	    -20.57418137	     37.30308997	      0.65106174	    -19.28643057	     -2.58719857	      0.00000000
     22.57333333	     -7.99205808	     -3.92080198	     -5.47769782	      2.35510043	      0.98301891	      1.05079918	     41.19905646	     10.26206607	      0.25649851	     37.57555027	      0.65581707	     11.63359757	     -1.67651858	      0.00000000	    -16.83061944	     -4.83055062	    -20.72118220	     40.53872523	      0.70753423	    -18.93680552	     -3.64989069	      0.00000000
     22.58000000	     -7.64736183	     -3.84067685	     -5.74636818	      2.35545705	      0.98263977	      1.05241196	     39.42580849	     10.65381956	      1.10872526	     33.41846808	      0.58326230	     12.24192245	     -0.16854243	      0.00000000	    -16.84980137	     -4.91785480	    -20.71118858	     43.92455658	      0.76662813	    -18.53591735	     -4.83388894	      0.00000000
     22.58666667	     -7.26097454	     -3.71620681	     -6.08870644	      2.35559243	      0.98185041	      1.05396729	     37.58472917	     11.02917856	      2.23399263	     29.53280686	      0.51544472	     12.81620050	      0.98271495	      0.00000000	    -16.81052508	     -4.95517186	    -20.78848665	     47.42738003	      0.82776394	    -18.05531220	     -6.13676252	      0.00000000
     22.59333333	     -6.80992514	     -3.62131731	     -6.41767046	      2.35561505	      0.98072754	      1.05534712	     35.65763287	     11.36028112	      3.43957126	     25.95904131	      0.45307074	     13.26207706	      1.85826848	      0.00000000	    -16.71609545	     -4.99170789	    -20.76720832	     51.04936712	      0.89097954	    -17.63026038	     -7.63557437	      0.00000000
     22.60000000	     -6.30574793	     -3.56410042	     -6.77626913	      2.35549059	      0.97921308	      1.05658969	     33.70363849	     11.65299405	      4.65978460	     22.79313146	      0.39781519	     13.57685452	      2.47195180	      0.00000000	    -16.57232887	     -5.05076820	    -20.77277269	     54.77895547	      0.95607313	    -17.28754820	     -9.25497832	      0.00000000
     22.60666667	     -5.78835830	     -3.53416815	     -7.11300172	      2.35523306	      0.97727910	      1.05765227	     31.84804677	     11.83910994	      5.59950650	     20.18855342	      0.35235673	     13.80491585	      3.13624861	      0.00000000	    -16.32290514	     -5.11528599	    -20.71022516	     58.59023144	      1.02259245	    -17.08936092	    -11.11283102	      0.00000000
     22.61333333	     -5.22902271	     -3.59960563	     -7.49552864	      2.35480477	      0.97496499	      1.05860426	     30.04583729	     12.05521346	      6.35932884	     18.11954319	      0.31624569	     13.85026133	      3.64179172	      0.00000000	    -16.04077834	     -5.29541071	    -20.78335686	     62.48293021	      1.09053286	    -16.97381675	    -13.03303232	      0.00000000
     22.62000000	     -4.92795563	     -3.54208002	     -8.04584497	      2.35397256	      0.97174273	      1.05979748	     28.83335651	     12.17872653	      6.79562432	     16.96927787	      0.29616977	     13.98477257	      4.34448267	      0.00000000	    -15.36270899	     -5.41486454	    -21.04027297	     66.51455486	      1.16089798	    -16.64924878	    -14.72959898	      0.00000000
     22.62666667	     -4.09187761	     -4.00955202	     -8.28836049	      2.35341145	      0.96913520	      1.06034740	     26.91559515	     12.55105945	      6.82610841	     15.92757518	      0.27798863	     13.31534330	      4.45102021	      0.00000000	    -15.24599991	     -5.95005500	    -20.98081601	     70.42566624	      1.22915975	    -16.98654841	    -17.12251471	      0.00000000
     22.63333333	     -3.50281071	     -4.43682248	     -8.75691444	      2.35239766	      0.96568724	      1.06118857	     25.52865762	     12.99102895	      6.75870893	     15.70474399	      0.27409949	     12.57204563	      4.37352294	      0.00000000	    -14.80189360	     -6.53452998	    -21.23428975	     74.43818462	      1.29919141	    -16.97175177	    -19.03027255	      0.00000000
     22.64000000	     -2.94088678	     -4.98126879	     -9.33267983	      2.35107683	      0.96178463	      1.06217254	     24.38997434	     13.56838304	      6.48602831	     16.22125481	      0.28311431	     11.64077651	      4.13082315	      0.00000000	    -14.31432434	     -7.28393695	    -21.64714926	     78.46675341	      1.36950320	    -16.74899275	    -20.71164620	      0.00000000
     22.64666667	     -2.31286814	     -5.67192421	     -9.90180676	      2.34953179	      0.95769926	      1.06301012	     23.31572703	     14.23424322	      6.00603404	     17.27769055	      0.30155259	     10.40358938	      3.57333080	      0.00000000	    -13.85498348	     -8.16574895	    -22.01911693	     82.45505903	      1.43911227	    -16.46873514	    -22.33482870	      0.00000000
